<svg xmlns="http://www.w3.org/2000/svg" viewBox="0 0 238.23 119.12"><defs><style>.cls-1{fill:#fff;}</style></defs><g id="Layer_2" data-name="Layer 2"><g id="Layer_1-2" data-name="Layer 1"><path d="M238.23,0A119.12,119.12,0,0,1,119.12,119.12,119.12,119.12,0,0,1,0,0"/><path class="cls-1" d="M86.23,15.81l9.21,24.56H90.73L88.8,34.92h-10L77,40.37H72.54l9.15-24.56Zm1.28,15.52L83.79,20.79,80.1,31.33Z"/><path class="cls-1" d="M105.73,26.14c-2.54,0-4,1-4,4.68v9.55h-4V22.15h4V25.4a5.47,5.47,0,0,1,4.94-3.29c.31,0,.75,0,1,.07v4.06C107,26.18,106.34,26.14,105.73,26.14Z"/><path class="cls-1" d="M121.72,28.38a4.09,4.09,0,0,0-4.23-3.29c-2.51,0-4.78,1.87-4.78,6.17s2.3,6.2,4.67,6.2c2,0,4-.88,4.48-3.32h3.92a8.35,8.35,0,0,1-8.46,6.67c-5.29,0-8.78-4.1-8.78-9.52s3.53-9.55,8.95-9.55a8,8,0,0,1,8.16,6.64Z"/><path class="cls-1" d="M133.5,17.34v4.81h3.66v2.91H133.5V35c0,1.87.44,2.31,2.17,2.31h1.46v3.08h-3c-3.9,0-4.68-1-4.68-4.78V25.06h-2.71V22.15h2.71V17.34Z"/><path class="cls-1" d="M144.44,19.88h-4V15.81h4Zm0,20.49h-4V22.15h4Z"/><path class="cls-1" d="M160.9,28.38a4.09,4.09,0,0,0-4.23-3.29c-2.51,0-4.78,1.87-4.78,6.17s2.31,6.2,4.68,6.2c2,0,4-.88,4.47-3.32H165a8.37,8.37,0,0,1-8.47,6.67c-5.28,0-8.77-4.1-8.77-9.52s3.52-9.55,8.94-9.55a8,8,0,0,1,8.16,6.64Z"/><path class="cls-1" d="M66.72,62.92c0-4.6,4.77-6.91,9.28-6.91,4.84,0,8.63,2.21,9.62,7.32H81.45c-.71-2.95-3.28-3.79-5.69-3.79-1.9,0-4.71.84-4.71,3.25,0,1.89,1.56,2.84,3.66,3.25l3,.57c4.3.85,8.4,2.41,8.4,7.35s-4.92,7.49-9.76,7.49c-5.83,0-9.82-3.18-10.33-8.57h4.23a5.9,5.9,0,0,0,6.3,5.05c2.92,0,5.25-1.32,5.25-3.69s-2.71-3.36-5-3.8l-3-.57C69.94,69.09,66.72,67.09,66.72,62.92Z"/><path class="cls-1" d="M95,81.45c-4.33,0-6.1-2.85-6.1-7.18V62.79h4v10.5c0,2.47.33,4.87,3.35,4.87s4.1-2.37,4.1-5.65V62.79h4V81h-4V78.5A5.79,5.79,0,0,1,95,81.45Z"/><path class="cls-1" d="M113,65.23a6,6,0,0,1,5.42-2.85c4.44,0,7.83,3.69,7.83,9.52s-3.39,9.55-7.83,9.55A6,6,0,0,1,113,78.6v8.34h-4V62.79h4Zm9,6.67c0-3.83-1.7-6.23-4.51-6.23-2.64,0-4.7,2-4.7,6.23s2.06,6.26,4.7,6.26C120.36,78.16,122.06,75.76,122.06,71.9Z"/><path class="cls-1" d="M133.57,65.23A6,6,0,0,1,139,62.38c4.44,0,7.83,3.69,7.83,9.52s-3.39,9.55-7.83,9.55a6,6,0,0,1-5.42-2.85v8.34h-4V62.79h4Zm9.05,6.67c0-3.83-1.7-6.23-4.51-6.23-2.64,0-4.71,2-4.71,6.23s2.07,6.26,4.71,6.26C140.92,78.16,142.62,75.76,142.62,71.9Z"/><path class="cls-1" d="M150.1,81V56.45h4V81Z"/><path class="cls-1" d="M158,83.86h1.52c1.76,0,2.51-.14,3.32-2.51l.2-.44-6.6-18.12h4.4l4.13,13.07,4.13-13.07h4.14L166.8,81c-1.7,4.7-2.92,6-7,6H158Z"/></g></g></svg>