<svg xmlns="http://www.w3.org/2000/svg" viewBox="0 0 616.46 531"><defs><style>.cls-1{fill:none;}.cls-2{fill:#15ffff;}.cls-3,.cls-4{fill:#fff;stroke:#231815;stroke-miterlimit:10;}.cls-3{stroke-width:3px;}.cls-5{fill:#e50012;}.cls-6{fill:#fff64d;}.cls-7{fill:#2cff40;}.cls-8{fill:#fa57ff;}</style></defs><g id="Layer_2" data-name="Layer 2"><g id="레이어_1" data-name="레이어 1"><rect class="cls-1" width="616.46" height="531"/><rect class="cls-2" x="19.08" y="400.96" width="36.58" height="29.77"/><line class="cls-3" x1="5.9" y1="94.55" x2="610.56" y2="94.55"/><line class="cls-3" x1="5.9" y1="58.31" x2="610.56" y2="58.31"/><line class="cls-4" x1="5.9" y1="133.04" x2="610.56" y2="133.04"/><line class="cls-4" x1="5.9" y1="171.53" x2="610.56" y2="171.53"/><path d="M25.27,106.1a3.73,3.73,0,0,0,3.82-2.2h2.5v17.5h-2.7V107.32a4.67,4.67,0,0,1-3.62,1.18Z"/><path d="M38.24,116.7a2.37,2.37,0,0,0-.18.9c0,1.22,1.13,2,2.85,2,2.58,0,4.15-2.35,4.2-6.4a5,5,0,0,1-4.25,2.2,5.69,5.69,0,0,1-6-5.83,6,6,0,0,1,6.27-6c4.13,0,6.55,2.87,6.55,7.92a16.73,16.73,0,0,1-1,6.15,6,6,0,0,1-5.9,4.13c-3.25,0-5.34-1.8-5.34-4.23a3.73,3.73,0,0,1,.22-1.32Zm6.6-7.25a3.54,3.54,0,0,0-3.68-3.6,3.6,3.6,0,1,0,0,7.2A3.54,3.54,0,0,0,44.84,109.45Z"/><path d="M25.82,66.67h3.47l5.57,13.89,5.58-13.89h3.47V84.16h-3.2V73.46c-.15.45-.85,2.68-.85,2.68l-3.42,8H33.29l-3.43-8s-.7-2.23-.85-2.68v10.7H25.82Z"/><path d="M36.91,39.3c0,4.29-2.66,7.41-7.44,7.41S22,43.89,22,39l4.29.45c0,2.21,1,3.32,3.15,3.32s3.15-1.43,3.15-3.51V23.51h4.29Z"/><path d="M59.4,37.65c0,5.81-4,9.06-9.32,9.06s-9.33-3.25-9.33-9.06V23.51H45V37.23c0,3.54,2,5.52,5,5.52s5-2,5-5.52V23.51H59.4Z"/><path d="M63.57,23.51h4.28V42.29H79.26v4H63.57Z"/><path d="M88.49,46.26H84.2V37.35L76.7,23.51h4.71l4.22,8.09s.42.88.72,1.66c.29-.78.71-1.66.71-1.66l4.22-8.09H96L88.49,37.35Z"/><path d="M31.23,209.72h4.09l9.19,22.74H39.93l-2.27-5.94H28.89l-2.28,5.94H22Zm-.88,13H36.2l-2.08-5.46s-.43-1.1-.85-2.47c-.42,1.37-.84,2.47-.84,2.47Z"/><path d="M64.66,223.85c0,5.82-4,9.07-9.32,9.07S46,229.67,46,223.85V209.72H50.3v13.71c0,3.54,2,5.52,5,5.52s5-2,5-5.52V209.72h4.28Z"/><path d="M86.08,229.34a7.73,7.73,0,0,1-6.92,3.58c-6.33,0-11.27-4.91-11.27-11.83a11.58,11.58,0,0,1,11.79-11.83c4.52,0,8.22,2.21,9.94,5.56l-3.21,2.34A7.35,7.35,0,0,0,79.62,213c-4,0-7.38,3.09-7.38,8.06,0,4.65,3,7.86,7.05,7.86s5.82-2.37,6.24-5.13H78.19v-3.51H89.82v12.15H87Z"/><path d="M112.44,223.85c0,5.82-4,9.07-9.32,9.07s-9.33-3.25-9.33-9.07V209.72h4.29v13.71c0,3.54,2,5.52,5,5.52s5-2,5-5.52V209.72h4.29Z"/><path d="M125.93,219c5,1,7.44,3.15,7.44,7s-3.18,7-8.48,7c-5.65,0-8.71-3.12-9.55-7.28l3.77-1.92c.61,3.38,2.3,5.43,5.75,5.43,2.56,0,4.22-1.24,4.22-3.06,0-2.11-2-3-5.62-3.76-4.13-.82-7.11-3-7.11-6.83s3.24-6.24,8-6.24c4.25,0,7.21,2,8.64,5.85l-3.38,1.95a5.34,5.34,0,0,0-5.36-4c-2,0-3.8.75-3.8,2.37S122.13,218.17,125.93,219Z"/><path d="M134.58,209.72h18.19v4h-7v18.78h-4.29V213.68h-6.95Z"/><path d="M32,151.55c1.63-1.6,2.23-2.68,2.23-4.13a2.84,2.84,0,0,0-3.13-2.9,2.92,2.92,0,0,0-3.14,3,3.26,3.26,0,0,0,.19,1.13l-2.49.45a4.92,4.92,0,0,1-.3-1.83c0-2.62,2.25-5.1,5.77-5.1s5.7,2.1,5.7,4.9c0,2.18-.73,3.83-3.05,6.1l-4.45,4.4h7.55V160H25.29v-1.93Z"/><path d="M48.86,147.27a2.19,2.19,0,0,0,.18-.9c0-1.22-1.1-2-2.7-2-2.55,0-4.12,2.83-4.35,6.43a5.77,5.77,0,0,1,10.32,3.59,6,6,0,0,1-6.35,6c-4,0-6.59-3-6.59-8.07a15.07,15.07,0,0,1,1-5.75c1.13-2.78,3.3-4.38,6-4.38,3.25,0,5.25,1.73,5.25,4.28a3.73,3.73,0,0,1-.23,1.32Zm-6.57,7.2a3.69,3.69,0,1,0,3.67-3.6A3.54,3.54,0,0,0,42.29,154.47Z"/><path d="M121.74,112.92c1.62-1.6,2.22-2.67,2.22-4.12a2.83,2.83,0,0,0-3.12-2.9,2.92,2.92,0,0,0-3.15,3,3,3,0,0,0,.2,1.12l-2.5.45a4.87,4.87,0,0,1-.3-1.82c0-2.62,2.25-5.1,5.77-5.1s5.7,2.1,5.7,4.9c0,2.17-.73,3.82-3,6.1l-4.45,4.4h7.55v2.45H115v-1.93Z"/><path d="M136.59,121.75c-4.53,0-7.75-3.63-7.75-9.1s3.22-9.1,7.75-9.1,7.74,3.62,7.74,9.1S141.11,121.75,136.59,121.75Zm5-9.1c0-4.18-2.1-6.65-5-6.65s-5.05,2.47-5.05,6.65,2.1,6.65,5.05,6.65S141.63,116.82,141.63,112.65Z"/><path d="M114.11,66.67h14v3h-5.35V84.16h-3.3V69.71h-5.35Z"/><path d="M121.74,151.55c1.62-1.6,2.22-2.68,2.22-4.13a2.83,2.83,0,0,0-3.12-2.9,2.93,2.93,0,0,0-3.15,3,3,3,0,0,0,.2,1.13l-2.5.45a4.92,4.92,0,0,1-.3-1.83c0-2.62,2.25-5.1,5.77-5.1s5.7,2.1,5.7,4.9c0,2.18-.73,3.83-3,6.1l-4.45,4.4h7.55V160H115v-1.93Z"/><path d="M133.11,160h-2.65L137.18,145h-8.82v-2.45h11.55v2.3Z"/><path d="M211.46,112.92c1.62-1.6,2.22-2.67,2.22-4.12a2.83,2.83,0,0,0-3.12-2.9,2.92,2.92,0,0,0-3.15,3,3,3,0,0,0,.2,1.12l-2.5.45a4.87,4.87,0,0,1-.3-1.82c0-2.62,2.25-5.1,5.77-5.1s5.7,2.1,5.7,4.9c0,2.17-.72,3.82-3.05,6.1l-4.45,4.4h7.55v2.45h-11.6v-1.93Z"/><path d="M219.36,106.1a3.73,3.73,0,0,0,3.82-2.2h2.5v17.5H223V107.32a4.65,4.65,0,0,1-3.62,1.18Z"/><path d="M203.56,66.67H207l2.78,11s.3,1.28.42,1.9c.13-.62.43-1.92.43-1.92l2.85-11h3.4l2.84,11s.3,1.3.43,1.92c.12-.62.42-1.9.42-1.9l2.78-11h3.47L222,84.16h-3.55l-3.27-12.7-3.28,12.7h-3.55Z"/><path d="M211.46,151.55c1.62-1.6,2.22-2.68,2.22-4.13a2.83,2.83,0,0,0-3.12-2.9,2.93,2.93,0,0,0-3.15,3,3,3,0,0,0,.2,1.13l-2.5.45a4.92,4.92,0,0,1-.3-1.83c0-2.62,2.25-5.1,5.77-5.1s5.7,2.1,5.7,4.9c0,2.18-.72,3.83-3.05,6.1l-4.45,4.4h7.55V160h-11.6v-1.93Z"/><path d="M218.73,155.17a4.84,4.84,0,0,1,2.93-4.52,4.41,4.41,0,0,1-2.4-4c0-2.68,2.37-4.53,5.52-4.53s5.53,1.85,5.53,4.53a4.43,4.43,0,0,1-2.4,4,4.83,4.83,0,0,1,2.92,4.52c0,3.12-2.47,5.2-6.05,5.2S218.73,158.29,218.73,155.17Zm9.5-.17a3.46,3.46,0,1,0-3.45,3.17A3.27,3.27,0,0,0,228.23,155Zm-3.45-5.33a2.79,2.79,0,0,0,3-2.75,3,3,0,0,0-5.95,0A2.78,2.78,0,0,0,224.78,149.67Z"/><path d="M301.18,112.92c1.62-1.6,2.22-2.67,2.22-4.12a2.83,2.83,0,0,0-3.12-2.9,2.92,2.92,0,0,0-3.15,3,3,3,0,0,0,.2,1.12l-2.5.45a4.87,4.87,0,0,1-.3-1.82c0-2.62,2.25-5.1,5.77-5.1s5.7,2.1,5.7,4.9c0,2.17-.72,3.82-3.05,6.1L298.5,119h7.55v2.45h-11.6v-1.93Z"/><path d="M315.83,112.92c1.62-1.6,2.22-2.67,2.22-4.12a2.83,2.83,0,0,0-3.12-2.9,2.92,2.92,0,0,0-3.15,3A3,3,0,0,0,312,110l-2.5.45a4.87,4.87,0,0,1-.3-1.82c0-2.62,2.25-5.1,5.77-5.1s5.7,2.1,5.7,4.9c0,2.17-.72,3.82-3,6.1l-4.45,4.4h7.55v2.45H309.1v-1.93Z"/><path d="M293.55,66.67h14v3H302.2V84.16h-3.3V69.71h-5.35Z"/><path d="M301.18,151.55c1.62-1.6,2.22-2.68,2.22-4.13a2.83,2.83,0,0,0-3.12-2.9,2.93,2.93,0,0,0-3.15,3,3,3,0,0,0,.2,1.13l-2.5.45a4.92,4.92,0,0,1-.3-1.83c0-2.62,2.25-5.1,5.77-5.1s5.7,2.1,5.7,4.9c0,2.18-.72,3.83-3.05,6.1l-4.45,4.4h7.55V160h-11.6v-1.93Z"/><path d="M311.75,155.32a2.36,2.36,0,0,0-.17.9c0,1.22,1.12,1.95,2.85,1.95,2.57,0,4.15-2.35,4.2-6.4a5,5,0,0,1-4.25,2.2,5.68,5.68,0,0,1-6-5.82,6,6,0,0,1,6.28-6c4.12,0,6.55,2.88,6.55,7.93a16.67,16.67,0,0,1-1,6.14,6,6,0,0,1-5.9,4.13c-3.25,0-5.35-1.8-5.35-4.23a3.77,3.77,0,0,1,.22-1.32Zm6.6-7.25a3.65,3.65,0,0,0-7.3,0,3.65,3.65,0,0,0,7.3,0Z"/><path d="M390.9,112.92c1.62-1.6,2.22-2.67,2.22-4.12a2.83,2.83,0,0,0-3.12-2.9,2.92,2.92,0,0,0-3.15,3,3,3,0,0,0,.2,1.12l-2.5.45a5.08,5.08,0,0,1-.3-1.82c0-2.62,2.25-5.1,5.77-5.1s5.7,2.1,5.7,4.9c0,2.17-.72,3.82-3.05,6.1l-4.45,4.4h7.55v2.45H384.18v-1.93Z"/><path d="M400.82,115.67a3.33,3.33,0,0,0-.1.8c0,1.68,1.48,2.93,3.43,2.93,2.1,0,3.45-1.13,3.45-3.18,0-2.3-2.05-3.17-4.7-3.17v-2c2.8,0,4-1.28,4-2.85s-1.18-2.35-2.88-2.35a2.59,2.59,0,0,0-2.84,2.47,2.14,2.14,0,0,0,.12.73l-2.45.47a3.65,3.65,0,0,1-.22-1.27c0-2.53,2.12-4.65,5.42-4.65,3.55,0,5.45,1.85,5.45,4.27a4.22,4.22,0,0,1-2.7,4,4.51,4.51,0,0,1,3.55,4.4c0,3.45-2.65,5.58-6.15,5.58-3.93,0-6.12-2.55-6.12-5.2a4.31,4.31,0,0,1,.27-1.48Z"/><path d="M384.7,66.67h12.37v2.94H388v4.53h8.32v3H388v7.07h-3.3Z"/><path d="M387.05,154.29a3.41,3.41,0,0,0-.1.8c0,1.68,1.47,2.93,3.42,2.93,2.1,0,3.45-1.13,3.45-3.18,0-2.3-2.05-3.17-4.7-3.17v-2c2.8,0,3.95-1.27,3.95-2.85s-1.17-2.35-2.87-2.35a2.6,2.6,0,0,0-2.85,2.48,2.08,2.08,0,0,0,.12.72l-2.45.48a4,4,0,0,1-.22-1.28c0-2.52,2.12-4.65,5.42-4.65,3.55,0,5.45,1.85,5.45,4.28a4.22,4.22,0,0,1-2.7,4,4.48,4.48,0,0,1,3.55,4.39c0,3.45-2.65,5.58-6.15,5.58-3.92,0-6.12-2.55-6.12-5.2a4.21,4.21,0,0,1,.27-1.47Z"/><path d="M406.8,160.37c-4.53,0-7.75-3.63-7.75-9.1s3.22-9.1,7.75-9.1,7.75,3.63,7.75,9.1S411.32,160.37,406.8,160.37Zm5.05-9.1c0-4.17-2.1-6.65-5.05-6.65s-5.05,2.48-5.05,6.65,2.1,6.65,5.05,6.65S411.85,155.44,411.85,151.27Z"/><path d="M480.62,112.92c1.62-1.6,2.22-2.67,2.22-4.12a2.82,2.82,0,0,0-3.12-2.9,2.92,2.92,0,0,0-3.15,3,3.2,3.2,0,0,0,.2,1.12l-2.5.45a5.08,5.08,0,0,1-.3-1.82c0-2.62,2.25-5.1,5.78-5.1s5.69,2.1,5.69,4.9c0,2.17-.72,3.82-3.05,6.1l-4.45,4.4h7.55v2.45H473.9v-1.93Z"/><path d="M487.17,115.75l8.57-11.85h2.7v11.85h1.88v2.45h-1.88v3.2h-2.7v-3.2h-8.57Zm2.83,0h5.74v-8Z"/><path d="M481.84,73.76c3.83.8,5.73,2.43,5.73,5.38s-2.45,5.37-6.53,5.37c-4.34,0-6.69-2.4-7.34-5.6l2.9-1.47c.47,2.6,1.77,4.17,4.42,4.17,2,0,3.25-1,3.25-2.35,0-1.62-1.5-2.32-4.33-2.9-3.17-.62-5.47-2.27-5.47-5.25s2.5-4.79,6.15-4.79a6.49,6.49,0,0,1,6.65,4.49l-2.6,1.5a4.12,4.12,0,0,0-4.13-3.1c-1.54,0-2.92.58-2.92,1.83S478.92,73.16,481.84,73.76Z"/><path d="M476.77,154.29a3.41,3.41,0,0,0-.1.8c0,1.68,1.48,2.93,3.43,2.93s3.44-1.13,3.44-3.18c0-2.3-2.05-3.17-4.69-3.17v-2c2.79,0,3.94-1.27,3.94-2.85s-1.17-2.35-2.87-2.35a2.6,2.6,0,0,0-2.85,2.48,2.08,2.08,0,0,0,.12.72l-2.44.48a3.76,3.76,0,0,1-.23-1.28c0-2.52,2.13-4.65,5.42-4.65,3.55,0,5.45,1.85,5.45,4.28a4.22,4.22,0,0,1-2.7,4,4.48,4.48,0,0,1,3.55,4.39c0,3.45-2.65,5.58-6.14,5.58-3.93,0-6.13-2.55-6.13-5.2a4,4,0,0,1,.28-1.47Z"/><path d="M488.2,144.72a3.73,3.73,0,0,0,3.82-2.2h2.5V160h-2.7V146a4.65,4.65,0,0,1-3.62,1.17Z"/><path class="cls-5" d="M570.34,112.92c1.63-1.6,2.22-2.67,2.22-4.12a2.82,2.82,0,0,0-3.12-2.9,2.93,2.93,0,0,0-3.15,3,3.2,3.2,0,0,0,.2,1.12l-2.5.45a5.08,5.08,0,0,1-.3-1.82c0-2.62,2.25-5.1,5.78-5.1s5.69,2.1,5.69,4.9c0,2.17-.72,3.82-3,6.1l-4.45,4.4h7.54v2.45H563.62v-1.93Z"/><path class="cls-5" d="M578.82,103.9h10.44v2.45h-8.42l-.47,4.92a5.42,5.42,0,0,1,4.07-1.82c3.82,0,5.95,2.45,5.95,6a6.12,6.12,0,0,1-6.47,6.28c-3.75,0-6-2.25-6-4.85a4.4,4.4,0,0,1,.22-1.33l2.48.58a3.07,3.07,0,0,0-.1.77c0,1.68,1.5,2.48,3.4,2.48a3.6,3.6,0,0,0,3.77-3.93,3.51,3.51,0,0,0-3.7-3.87,4.72,4.72,0,0,0-3.9,2.35l-2.1-.58Z"/><path class="cls-5" d="M563.59,155.17a4.84,4.84,0,0,1,2.93-4.52,4.41,4.41,0,0,1-2.4-4c0-2.68,2.37-4.53,5.52-4.53s5.52,1.85,5.52,4.53a4.41,4.41,0,0,1-2.4,4,4.84,4.84,0,0,1,2.93,4.52c0,3.12-2.47,5.2-6.05,5.2S563.59,158.29,563.59,155.17Zm9.5-.17a3.46,3.46,0,1,0-3.45,3.17A3.27,3.27,0,0,0,573.09,155Zm-3.45-5.33a2.78,2.78,0,0,0,3-2.75,3,3,0,0,0-5.94,0A2.78,2.78,0,0,0,569.64,149.67Z"/><path class="cls-5" d="M586.41,141.77h2.65l-10,19h-2.65Z"/><path class="cls-5" d="M590.49,144.72a3.73,3.73,0,0,0,3.83-2.2h2.49V160h-2.69V146a4.69,4.69,0,0,1-3.63,1.17Z"/><path class="cls-5" d="M571.56,73.76c3.83.8,5.73,2.43,5.73,5.38s-2.45,5.37-6.53,5.37c-4.34,0-6.69-2.4-7.34-5.6l2.9-1.47c.47,2.6,1.77,4.17,4.42,4.17,2,0,3.25-1,3.25-2.35,0-1.62-1.5-2.32-4.32-2.9-3.18-.62-5.48-2.27-5.48-5.25s2.5-4.79,6.15-4.79A6.49,6.49,0,0,1,577,70.81l-2.6,1.5a4.11,4.11,0,0,0-4.12-3.1c-1.55,0-2.93.58-2.93,1.83S568.64,73.16,571.56,73.76Z"/><line class="cls-3" x1="5.9" y1="281.47" x2="610.56" y2="281.47"/><line class="cls-3" x1="5.9" y1="245.22" x2="610.56" y2="245.22"/><line class="cls-4" x1="5.9" y1="319.96" x2="610.56" y2="319.96"/><line class="cls-4" x1="5.9" y1="358.44" x2="610.56" y2="358.44"/><line class="cls-4" x1="5.9" y1="396.93" x2="610.56" y2="396.93"/><line class="cls-4" x1="5.9" y1="435.42" x2="610.56" y2="435.42"/><line class="cls-4" x1="5.9" y1="473.91" x2="610.56" y2="473.91"/><path d="M25.82,253.94h3.47l5.57,13.9,5.58-13.9h3.47v17.49h-3.2V260.74c-.15.45-.85,2.67-.85,2.67l-3.42,8H33.29l-3.43-8s-.7-2.22-.85-2.67v10.69H25.82Z"/><path d="M28.71,342.59a2.43,2.43,0,0,0-.17.9c0,1.23,1.12,1.95,2.85,1.95,2.57,0,4.15-2.35,4.2-6.4a5,5,0,0,1-4.25,2.2,5.68,5.68,0,0,1-6-5.82,6,6,0,0,1,6.27-6c4.12,0,6.55,2.87,6.55,7.92a16.76,16.76,0,0,1-1,6.15,6,6,0,0,1-5.9,4.12c-3.25,0-5.35-1.8-5.35-4.22a3.83,3.83,0,0,1,.23-1.33Zm6.6-7.25a3.65,3.65,0,1,0-3.67,3.6A3.53,3.53,0,0,0,35.31,335.34Z"/><path d="M25.27,370.62a3.73,3.73,0,0,0,3.82-2.2h2.5v17.49h-2.7V371.84A4.67,4.67,0,0,1,25.27,373Z"/><path d="M44.26,373.17a2.26,2.26,0,0,0,.18-.9c0-1.23-1.1-2-2.7-2-2.55,0-4.12,2.82-4.35,6.42a5.77,5.77,0,0,1,10.32,3.6,6,6,0,0,1-6.35,6c-4,0-6.59-2.95-6.59-8.07a15.1,15.1,0,0,1,1-5.75,6.37,6.37,0,0,1,6-4.37c3.25,0,5.25,1.72,5.25,4.27a3.83,3.83,0,0,1-.23,1.33Zm-6.57,7.2a3.69,3.69,0,1,0,3.67-3.6A3.53,3.53,0,0,0,37.69,380.37Z"/><path d="M32,416.06c1.63-1.6,2.23-2.67,2.23-4.12a2.83,2.83,0,0,0-3.13-2.9A2.92,2.92,0,0,0,28,412a3.2,3.2,0,0,0,.19,1.12l-2.49.45a4.87,4.87,0,0,1-.3-1.82c0-2.63,2.25-5.1,5.77-5.1s5.7,2.1,5.7,4.9c0,2.17-.73,3.82-3.05,6.1l-4.45,4.4h7.55v2.45H25.29v-1.93Z"/><path d="M41.94,418.81a3.33,3.33,0,0,0-.1.8,3.13,3.13,0,0,0,3.42,2.93c2.1,0,3.45-1.13,3.45-3.18,0-2.3-2.05-3.17-4.7-3.17v-2.05c2.8,0,4-1.28,4-2.85s-1.17-2.35-2.87-2.35a2.59,2.59,0,0,0-2.85,2.47,1.91,1.91,0,0,0,.13.73l-2.45.47a3.66,3.66,0,0,1-.23-1.27c0-2.53,2.13-4.65,5.42-4.65,3.55,0,5.45,1.85,5.45,4.27a4.22,4.22,0,0,1-2.7,4,4.5,4.5,0,0,1,3.55,4.4c0,3.45-2.65,5.57-6.15,5.57-3.92,0-6.12-2.54-6.12-5.19a4.1,4.1,0,0,1,.28-1.48Z"/><path d="M28.16,457.43a4,4,0,0,0-.09.8c0,1.68,1.47,2.93,3.42,2.93,2.1,0,3.45-1.13,3.45-3.18,0-2.3-2-3.17-4.7-3.17v-2.05c2.8,0,3.95-1.27,3.95-2.85s-1.18-2.35-2.88-2.35A2.59,2.59,0,0,0,28.47,450a1.87,1.87,0,0,0,.12.72l-2.45.48a3.75,3.75,0,0,1-.22-1.28c0-2.52,2.12-4.65,5.42-4.65,3.55,0,5.45,1.85,5.45,4.28a4.21,4.21,0,0,1-2.7,3.94,4.51,4.51,0,0,1,3.55,4.4c0,3.45-2.65,5.58-6.15,5.58-3.92,0-6.12-2.55-6.12-5.2a4.31,4.31,0,0,1,.27-1.48Z"/><path d="M47.91,463.51c-4.52,0-7.74-3.63-7.74-9.1s3.22-9.1,7.74-9.1,7.75,3.63,7.75,9.1S52.44,463.51,47.91,463.51Zm5.05-9.1c0-4.17-2.1-6.65-5.05-6.65s-5,2.48-5,6.65,2.09,6.65,5,6.65S53,458.58,53,454.41Z"/><path d="M117.89,303a3.27,3.27,0,0,0-.1.8c0,1.67,1.47,2.92,3.42,2.92,2.1,0,3.45-1.12,3.45-3.17,0-2.3-2-3.18-4.7-3.18v-2.05c2.8,0,4-1.27,4-2.85s-1.17-2.35-2.87-2.35a2.6,2.6,0,0,0-2.85,2.48,2.08,2.08,0,0,0,.12.72l-2.45.48a3.75,3.75,0,0,1-.22-1.28c0-2.52,2.12-4.65,5.42-4.65,3.55,0,5.45,1.85,5.45,4.28a4.22,4.22,0,0,1-2.7,3.95,4.49,4.49,0,0,1,3.55,4.4c0,3.45-2.65,5.57-6.15,5.57-3.92,0-6.12-2.55-6.12-5.2a4.26,4.26,0,0,1,.27-1.47Z"/><path d="M114.11,253.94h14V257h-5.35v14.44h-3.3V257h-5.35Z"/><path d="M115,332a3.73,3.73,0,0,0,3.82-2.2h2.5v17.49h-2.7V333.22A4.65,4.65,0,0,1,115,334.4Z"/><path d="M132.23,347.64c-4.52,0-7.74-3.62-7.74-9.1s3.22-9.09,7.74-9.09,7.75,3.62,7.75,9.09S136.76,347.64,132.23,347.64Zm5.05-9.1c0-4.17-2.1-6.64-5.05-6.64s-5,2.47-5,6.64,2.1,6.65,5,6.65S137.28,342.72,137.28,338.54Z"/><path d="M115,370.62a3.73,3.73,0,0,0,3.82-2.2h2.5v17.49h-2.7V371.84A4.65,4.65,0,0,1,115,373Z"/><path d="M129,385.91h-2.65l6.72-15h-8.82v-2.45h11.54v2.3Z"/><path d="M121.74,416.06c1.62-1.6,2.22-2.67,2.22-4.12a2.83,2.83,0,0,0-3.12-2.9,2.92,2.92,0,0,0-3.15,3,3,3,0,0,0,.2,1.12l-2.5.45a4.87,4.87,0,0,1-.3-1.82c0-2.63,2.25-5.1,5.77-5.1s5.7,2.1,5.7,4.9c0,2.17-.73,3.82-3,6.1l-4.45,4.4h7.55v2.45H115v-1.93Z"/><path d="M128.29,418.89,136.86,407h2.7v11.85h1.87v2.45h-1.87v3.2h-2.7v-3.2h-8.57Zm2.82,0h5.75v-8Z"/><path d="M117.89,457.43a3.33,3.33,0,0,0-.1.8c0,1.68,1.47,2.93,3.42,2.93,2.1,0,3.45-1.13,3.45-3.18,0-2.3-2-3.17-4.7-3.17v-2.05c2.8,0,4-1.27,4-2.85s-1.17-2.35-2.87-2.35a2.6,2.6,0,0,0-2.85,2.48,2.08,2.08,0,0,0,.12.72l-2.45.48a3.75,3.75,0,0,1-.22-1.28c0-2.52,2.12-4.65,5.42-4.65,3.55,0,5.45,1.85,5.45,4.28a4.21,4.21,0,0,1-2.7,3.94,4.51,4.51,0,0,1,3.55,4.4c0,3.45-2.65,5.58-6.15,5.58-3.92,0-6.12-2.55-6.12-5.2a4.31,4.31,0,0,1,.27-1.48Z"/><path d="M129.31,447.86a3.73,3.73,0,0,0,3.83-2.2h2.5v17.5h-2.7V449.09a4.69,4.69,0,0,1-3.63,1.17Z"/><path d="M204.56,303l8.57-11.85h2.7V303h1.87v2.45h-1.87v3.2h-2.7v-3.2h-8.57Zm2.82,0h5.75v-8Z"/><path d="M203.56,253.94H207L209.81,265s.3,1.27.42,1.9c.13-.63.43-1.93.43-1.93l2.85-11h3.4l2.84,11s.3,1.3.43,1.93c.12-.63.42-1.9.42-1.9l2.78-11.05h3.47L222,271.43h-3.55l-3.27-12.69-3.28,12.69h-3.55Z"/><path d="M204.71,332a3.73,3.73,0,0,0,3.82-2.2H211v17.49h-2.7V333.22a4.65,4.65,0,0,1-3.62,1.18Z"/><path d="M214.23,332a3.73,3.73,0,0,0,3.83-2.2h2.5v17.49h-2.7V333.22a4.69,4.69,0,0,1-3.63,1.18Z"/><path d="M204.71,370.62a3.73,3.73,0,0,0,3.82-2.2H211v17.49h-2.7V371.84a4.65,4.65,0,0,1-3.62,1.18Z"/><path d="M214,381.06a4.85,4.85,0,0,1,2.92-4.52,4.42,4.42,0,0,1-2.4-4c0-2.67,2.38-4.52,5.53-4.52s5.52,1.85,5.52,4.52a4.4,4.4,0,0,1-2.4,4,4.86,4.86,0,0,1,2.93,4.52c0,3.13-2.48,5.2-6.05,5.2S214,384.19,214,381.06Zm9.5-.17a3.46,3.46,0,0,0-6.9,0,3.46,3.46,0,0,0,6.9,0ZM220,375.57a2.78,2.78,0,0,0,3-2.75,3,3,0,0,0-5.95,0A2.79,2.79,0,0,0,220,375.57Z"/><path d="M211.46,416.06c1.62-1.6,2.22-2.67,2.22-4.12a2.83,2.83,0,0,0-3.12-2.9,2.92,2.92,0,0,0-3.15,3,3,3,0,0,0,.2,1.12l-2.5.45a4.87,4.87,0,0,1-.3-1.82c0-2.63,2.25-5.1,5.77-5.1s5.7,2.1,5.7,4.9c0,2.17-.72,3.82-3.05,6.1l-4.45,4.4h7.55v2.45h-11.6v-1.93Z"/><path d="M219.93,407h10.45v2.45H222l-.48,4.92a5.44,5.44,0,0,1,4.08-1.82c3.82,0,5.95,2.45,5.95,6a6.12,6.12,0,0,1-6.48,6.27c-3.75,0-6-2.24-6-4.84a4.1,4.1,0,0,1,.23-1.33l2.47.58a3.07,3.07,0,0,0-.1.77c0,1.68,1.5,2.48,3.4,2.48a3.61,3.61,0,0,0,3.78-3.93,3.51,3.51,0,0,0-3.7-3.87,4.7,4.7,0,0,0-3.9,2.35l-2.1-.58Z"/><path d="M295.45,291.17H305.9v2.45h-8.42l-.48,4.93a5.45,5.45,0,0,1,4.08-1.83c3.82,0,5.95,2.45,5.95,6a6.12,6.12,0,0,1-6.48,6.27c-3.75,0-6-2.25-6-4.85a4,4,0,0,1,.23-1.32l2.47.57a3.09,3.09,0,0,0-.1.78c0,1.67,1.5,2.47,3.4,2.47a3.6,3.6,0,0,0,3.78-3.92,3.52,3.52,0,0,0-3.7-3.88,4.73,4.73,0,0,0-3.9,2.35l-2.1-.57Z"/><path d="M293.55,253.94h14V257H302.2v14.44h-3.3V257h-5.35Z"/><path d="M294.43,332a3.73,3.73,0,0,0,3.82-2.2h2.5v17.49h-2.7V333.22a4.65,4.65,0,0,1-3.62,1.18Z"/><path d="M310.7,338.82c1.63-1.6,2.23-2.68,2.23-4.12a2.83,2.83,0,0,0-3.13-2.9,2.92,2.92,0,0,0-3.15,3,3.25,3.25,0,0,0,.2,1.13l-2.5.45a5.13,5.13,0,0,1-.3-1.83c0-2.62,2.25-5.09,5.78-5.09s5.7,2.1,5.7,4.89c0,2.18-.73,3.83-3,6.1l-4.45,4.4h7.55v2.45H304v-1.92Z"/><path d="M294.43,370.62a3.73,3.73,0,0,0,3.82-2.2h2.5v17.49h-2.7V371.84a4.65,4.65,0,0,1-3.62,1.18Z"/><path d="M307.4,381.21a2.44,2.44,0,0,0-.17.91c0,1.22,1.12,1.94,2.85,1.94,2.57,0,4.15-2.35,4.2-6.39a5.06,5.06,0,0,1-4.25,2.2,5.69,5.69,0,0,1-6-5.83,6,6,0,0,1,6.28-6c4.12,0,6.55,2.87,6.55,7.92a16.76,16.76,0,0,1-1,6.15,6,6,0,0,1-5.9,4.12c-3.25,0-5.35-1.8-5.35-4.22a3.83,3.83,0,0,1,.22-1.33ZM314,374a3.65,3.65,0,1,0-3.67,3.6A3.53,3.53,0,0,0,314,374Z"/><path d="M301.18,416.06c1.62-1.6,2.22-2.67,2.22-4.12a2.83,2.83,0,0,0-3.12-2.9,2.92,2.92,0,0,0-3.15,3,3,3,0,0,0,.2,1.12l-2.5.45a4.87,4.87,0,0,1-.3-1.82c0-2.63,2.25-5.1,5.77-5.1s5.7,2.1,5.7,4.9c0,2.17-.72,3.82-3.05,6.1l-4.45,4.4h7.55v2.45h-11.6v-1.93Z"/><path d="M318,411.79a2.43,2.43,0,0,0,.17-.9c0-1.23-1.1-2-2.7-2-2.55,0-4.12,2.82-4.35,6.42a5.69,5.69,0,0,1,4.5-2.22,5.62,5.62,0,0,1,5.83,5.82,6,6,0,0,1-6.35,6c-4,0-6.6-2.94-6.6-8.07a15.1,15.1,0,0,1,1-5.75,6.38,6.38,0,0,1,5.95-4.37c3.25,0,5.25,1.72,5.25,4.27a3.83,3.83,0,0,1-.22,1.33Zm-6.58,7.2a3.69,3.69,0,1,0,3.68-3.6A3.54,3.54,0,0,0,311.45,419Z"/><path d="M393.62,295.92a2.19,2.19,0,0,0,.18-.9c0-1.22-1.1-2-2.7-2-2.55,0-4.13,2.83-4.35,6.43a5.77,5.77,0,0,1,10.32,3.6,6,6,0,0,1-6.35,6c-4,0-6.59-2.95-6.59-8.07a14.88,14.88,0,0,1,1-5.75,6.37,6.37,0,0,1,6-4.38c3.25,0,5.25,1.73,5.25,4.28a3.73,3.73,0,0,1-.23,1.32Zm-6.57,7.2a3.69,3.69,0,1,0,3.67-3.6A3.53,3.53,0,0,0,387.05,303.12Z"/><path d="M384.7,253.94h12.37v2.95H388v4.52h8.32v2.95H388v7.07h-3.3Z"/><path d="M384.15,332a3.73,3.73,0,0,0,3.82-2.2h2.5v17.49h-2.7V333.22a4.65,4.65,0,0,1-3.62,1.18Z"/><path d="M396.57,341.57a3.27,3.27,0,0,0-.1.8c0,1.67,1.48,2.92,3.43,2.92,2.1,0,3.45-1.12,3.45-3.17,0-2.3-2.05-3.18-4.7-3.18v-2.05c2.8,0,4-1.27,4-2.85s-1.18-2.34-2.88-2.34a2.59,2.59,0,0,0-2.85,2.47,1.91,1.91,0,0,0,.13.73l-2.45.47a3.71,3.71,0,0,1-.23-1.28c0-2.52,2.13-4.64,5.43-4.64,3.55,0,5.45,1.85,5.45,4.27a4.22,4.22,0,0,1-2.7,3.95,4.49,4.49,0,0,1,3.55,4.4c0,3.45-2.65,5.57-6.15,5.57-3.93,0-6.13-2.55-6.13-5.2a4.27,4.27,0,0,1,.28-1.47Z"/><path d="M390.9,377.44c1.62-1.6,2.22-2.67,2.22-4.12a2.83,2.83,0,0,0-3.12-2.9,2.92,2.92,0,0,0-3.15,3,3,3,0,0,0,.2,1.12l-2.5.45a5.08,5.08,0,0,1-.3-1.82c0-2.63,2.25-5.1,5.77-5.1s5.7,2.1,5.7,4.9c0,2.17-.72,3.82-3.05,6.09l-4.45,4.4h7.55v2.45H384.18V384Z"/><path d="M405.75,386.26c-4.53,0-7.75-3.62-7.75-9.09s3.22-9.1,7.75-9.1,7.75,3.62,7.75,9.1S410.27,386.26,405.75,386.26Zm5.05-9.09c0-4.18-2.1-6.65-5.05-6.65s-5.05,2.47-5.05,6.65,2.1,6.64,5.05,6.64S410.8,381.34,410.8,377.17Z"/><path d="M390.9,416.06c1.62-1.6,2.22-2.67,2.22-4.12A2.83,2.83,0,0,0,390,409a2.92,2.92,0,0,0-3.15,3,3,3,0,0,0,.2,1.12l-2.5.45a5.08,5.08,0,0,1-.3-1.82c0-2.63,2.25-5.1,5.77-5.1s5.7,2.1,5.7,4.9c0,2.17-.72,3.82-3.05,6.1l-4.45,4.4h7.55v2.45H384.18v-1.93Z"/><path d="M402.27,424.54h-2.65l6.73-15.05h-8.83V407h11.55v2.3Z"/><path d="M478.35,308.67H475.7l6.72-15.05H473.6v-2.45h11.54v2.3Z"/><path d="M481.84,261c3.83.8,5.73,2.42,5.73,5.37s-2.45,5.37-6.53,5.37c-4.34,0-6.69-2.4-7.34-5.59l2.9-1.48c.47,2.6,1.77,4.17,4.42,4.17,2,0,3.25-.94,3.25-2.34,0-1.63-1.5-2.33-4.33-2.9-3.17-.63-5.47-2.28-5.47-5.25s2.5-4.8,6.15-4.8a6.5,6.5,0,0,1,6.65,4.5l-2.6,1.5a4.12,4.12,0,0,0-4.13-3.1c-1.54,0-2.92.57-2.92,1.82S478.92,260.44,481.84,261Z"/><path d="M473.87,332a3.71,3.71,0,0,0,3.82-2.2h2.5v17.49H477.5V333.22a4.69,4.69,0,0,1-3.63,1.18Z"/><path d="M483.25,341.64l8.57-11.84h2.7v11.84h1.87v2.45h-1.87v3.2h-2.7v-3.2h-8.57Zm2.82,0h5.75v-8Z"/><path d="M480.62,377.44c1.62-1.6,2.22-2.67,2.22-4.12a2.82,2.82,0,0,0-3.12-2.9,2.92,2.92,0,0,0-3.15,3,3.2,3.2,0,0,0,.2,1.12l-2.5.45a5.08,5.08,0,0,1-.3-1.82c0-2.63,2.25-5.1,5.78-5.1s5.69,2.1,5.69,4.9c0,2.17-.72,3.82-3.05,6.09l-4.45,4.4h7.55v2.45H473.9V384Z"/><path d="M488.52,370.62a3.73,3.73,0,0,0,3.83-2.2h2.5v17.49h-2.7V371.84a4.69,4.69,0,0,1-3.63,1.18Z"/><path d="M480.62,416.06c1.62-1.6,2.22-2.67,2.22-4.12a2.82,2.82,0,0,0-3.12-2.9,2.92,2.92,0,0,0-3.15,3,3.2,3.2,0,0,0,.2,1.12l-2.5.45a5.08,5.08,0,0,1-.3-1.82c0-2.63,2.25-5.1,5.78-5.1s5.69,2.1,5.69,4.9c0,2.17-.72,3.82-3.05,6.1l-4.45,4.4h7.55v2.45H473.9v-1.93Z"/><path d="M487.9,419.69a4.86,4.86,0,0,1,2.92-4.53,4.42,4.42,0,0,1-2.4-4c0-2.67,2.38-4.52,5.52-4.52s5.53,1.85,5.53,4.52a4.42,4.42,0,0,1-2.4,4,4.86,4.86,0,0,1,2.92,4.53c0,3.12-2.47,5.19-6.05,5.19S487.9,422.81,487.9,419.69Zm9.49-.18a3.46,3.46,0,1,0-3.45,3.18A3.26,3.26,0,0,0,497.39,419.51Zm-3.45-5.32a2.79,2.79,0,0,0,3-2.75,3,3,0,0,0-5.95,0A2.78,2.78,0,0,0,493.94,414.19Z"/><path class="cls-5" d="M563.59,303.82a4.85,4.85,0,0,1,2.93-4.52,4.41,4.41,0,0,1-2.4-3.95c0-2.68,2.37-4.53,5.52-4.53s5.52,1.85,5.52,4.53a4.41,4.41,0,0,1-2.4,3.95,4.85,4.85,0,0,1,2.93,4.52c0,3.13-2.47,5.2-6.05,5.2S563.59,307,563.59,303.82Zm9.5-.17a3.46,3.46,0,0,0-6.9,0,3.46,3.46,0,0,0,6.9,0Zm-3.45-5.33a2.78,2.78,0,0,0,3-2.75,3,3,0,0,0-5.94,0A2.78,2.78,0,0,0,569.64,298.32Z"/><path class="cls-5" d="M571.56,261c3.83.8,5.73,2.42,5.73,5.37s-2.45,5.37-6.53,5.37c-4.34,0-6.69-2.4-7.34-5.59l2.9-1.48c.47,2.6,1.77,4.17,4.42,4.17,2,0,3.25-.94,3.25-2.34,0-1.63-1.5-2.33-4.32-2.9-3.18-.63-5.48-2.28-5.48-5.25s2.5-4.8,6.15-4.8a6.5,6.5,0,0,1,6.65,4.5l-2.6,1.5a4.11,4.11,0,0,0-4.12-3.1c-1.55,0-2.93.57-2.93,1.82S568.64,260.44,571.56,261Z"/><path class="cls-5" d="M563.59,332a3.73,3.73,0,0,0,3.83-2.2h2.5v17.49h-2.7V333.22a4.69,4.69,0,0,1-3.63,1.18Z"/><path class="cls-5" d="M574.14,329.8h10.45v2.45h-8.42l-.48,4.92a5.44,5.44,0,0,1,4.07-1.83c3.83,0,6,2.45,6,6a6.11,6.11,0,0,1-6.47,6.27c-3.75,0-6-2.25-6-4.85a4,4,0,0,1,.23-1.32l2.47.57a3.09,3.09,0,0,0-.1.78c0,1.67,1.5,2.47,3.4,2.47a3.59,3.59,0,0,0,3.77-3.92c0-2.48-1.5-3.88-3.69-3.88a4.73,4.73,0,0,0-3.9,2.35l-2.1-.57Z"/><path class="cls-5" d="M570.34,377.44c1.63-1.6,2.22-2.67,2.22-4.12a2.82,2.82,0,0,0-3.12-2.9,2.93,2.93,0,0,0-3.15,3,3.2,3.2,0,0,0,.2,1.12L564,375a5.08,5.08,0,0,1-.3-1.82c0-2.63,2.25-5.1,5.78-5.1s5.69,2.1,5.69,4.9c0,2.17-.72,3.82-3,6.09l-4.45,4.4h7.54v2.45H563.62V384Z"/><path class="cls-5" d="M585,377.44c1.62-1.6,2.23-2.67,2.23-4.12a2.83,2.83,0,0,0-3.13-2.9,2.93,2.93,0,0,0-3.15,3,3.2,3.2,0,0,0,.2,1.12l-2.5.45a5.08,5.08,0,0,1-.3-1.82c0-2.63,2.25-5.1,5.78-5.1s5.69,2.1,5.69,4.9c0,2.17-.72,3.82-3,6.09l-4.44,4.4h7.54v2.45H578.27V384Z"/><path class="cls-5" d="M570.34,416.06c1.63-1.6,2.22-2.67,2.22-4.12a2.82,2.82,0,0,0-3.12-2.9,2.93,2.93,0,0,0-3.15,3,3.2,3.2,0,0,0,.2,1.12l-2.5.45a5.08,5.08,0,0,1-.3-1.82c0-2.63,2.25-5.1,5.78-5.1s5.69,2.1,5.69,4.9c0,2.17-.72,3.82-3,6.1l-4.45,4.4h7.54v2.45H563.62v-1.93Z"/><path class="cls-5" d="M580.92,419.84a2.19,2.19,0,0,0-.18.9c0,1.22,1.13,1.95,2.85,1.95,2.58,0,4.15-2.35,4.2-6.4a5.06,5.06,0,0,1-4.25,2.2,5.69,5.69,0,0,1-6-5.83,6,6,0,0,1,6.27-6c4.12,0,6.55,2.87,6.55,7.92a16.73,16.73,0,0,1-1,6.15,6,6,0,0,1-5.9,4.12c-3.25,0-5.35-1.79-5.35-4.22a3.73,3.73,0,0,1,.23-1.32Zm6.59-7.25a3.53,3.53,0,0,0-3.67-3.6,3.6,3.6,0,1,0,0,7.2A3.54,3.54,0,0,0,587.51,412.59Z"/><rect class="cls-6" x="196.06" y="123.59" width="414.5" height="5.17"/><rect class="cls-6" x="5.9" y="162.57" width="408.64" height="5.17"/><rect class="cls-6" x="8.04" y="489.47" width="22.87" height="5.17"/><rect class="cls-7" x="465.63" y="162.57" width="144.93" height="5.17"/><rect class="cls-8" x="8.04" y="504.96" width="22.87" height="5.17"/><path d="M45.2,487.2v9.2H44v-7.66a8.37,8.37,0,0,1-2.42,1.31v-1.26a9.38,9.38,0,0,0,2.56-1.59Z"/><path d="M54.28,494l-.77.79a7.41,7.41,0,0,1-2.84-3.09,7.4,7.4,0,0,1-3.05,3.3l-.77-.83a5.62,5.62,0,0,0,3.2-4.86V489H47.43v-1.07h2.62V486h1.19v1.92h2.69V489H51.24v.39A5.27,5.27,0,0,0,54.28,494Zm4.51-2.88H56.51v6.48H55.32V485.56h1.19v4.53h2.28Z"/><path d="M70.17,492.62a53.3,53.3,0,0,1-5.81.32H63v-1h1.35c-.08-1.15-.14-2.42-.14-3.42h1.16c0,1,.07,2.26.16,3.41l1.73-.06c.07-1.13.14-2.38.14-3.35h1.17c0,1-.07,2.18-.16,3.28.63,0,1.22-.1,1.65-.17Zm-.67-4.84H63.14v-1.06H69.5Zm-3.22,8.66h6.29v1.06H65.08v-3.3h1.2Zm7.94-6.92v1.05H72.28v4.19h-1.2v-9.15h1.2v3.91Z"/><path d="M80.06,494.11H75.28v-7h4.78Zm-1.19-1v-4.9h-2.4v4.9Zm6.45-7.47v12H84.13V491.2H82.62V497H81.43V486h1.19v4.19h1.51v-4.54Z"/><path d="M91.55,495.31l-.93-.77a11.75,11.75,0,0,0,4.7-6.52H91.14V487h5.51A12.44,12.44,0,0,1,91.55,495.31Zm8.74-9.7v12H99.1v-12Z"/><path d="M103.2,493.46l-.84-.8a11.32,11.32,0,0,0,4.35-4.82h-3.88v-1h5.35C107.57,490,105.27,492,103.2,493.46Zm2.31,3h6.32v1.06h-7.51v-3.57h1.19Zm7.95-7.14v1.05h-1.94v4.34h-1.19v-9.13h1.19v3.74Z"/><path d="M45.2,504.08v9.21H44v-7.67a8.18,8.18,0,0,1-2.42,1.32v-1.26a9.42,9.42,0,0,0,2.56-1.6Z"/><path d="M54.28,510.92l-.77.78a7.33,7.33,0,0,1-2.84-3.08,7.33,7.33,0,0,1-3.05,3.29l-.77-.82a5.62,5.62,0,0,0,3.2-4.86v-.4H47.43v-1.06h2.62v-1.92h1.19v1.92h2.69v1.06H51.24v.4A5.27,5.27,0,0,0,54.28,510.92ZM58.79,508H56.51v6.49H55.32V502.44h1.19V507h2.28Z"/><path d="M67,503.69h1.18v7.49H63.39v-7.32h1.2v2.46H67Zm0,6.44v-2.76h-2.4v2.76Zm6.45-7.63v12H72.25v-6.4h-1.5v5.78H69.57v-11h1.18v4.2h1.5V502.5Z"/><path d="M86.07,508.47v1H74.86v-1h5v-1.75h1.21v1.75Zm-9.74-1-.59-.85c1.77-.34,4.12-1.66,4.12-3.45v-.31h1.19v.31c0,1.79,2.38,3.11,4.12,3.45l-.59.85a6.48,6.48,0,0,1-4.12-2.62A6.48,6.48,0,0,1,76.33,507.43Zm8,5.16c0,1.24-1.32,2.07-3.88,2.07s-3.85-.83-3.85-2.07,1.29-2.18,3.85-2.18S84.33,511.25,84.33,512.59Zm-1.18,0c0-.7-.84-1.11-2.7-1.11s-2.66.41-2.66,1.11.75,1.06,2.66,1.06S83.15,513.17,83.15,512.56Z"/><path d="M97.63,510.82l-.84.74a9.22,9.22,0,0,1-2.62-4,8.81,8.81,0,0,1-2.94,4.16l-.86-.78a7.76,7.76,0,0,0,3.21-6.47v-.91h1.18v.91A7.94,7.94,0,0,0,97.63,510.82Zm2.73-8.38v12.08H99.17V502.44Z"/><path d="M102.87,509.83l-.82-.82c1.29-.82,3-1.89,3.16-4.44h-2.46v-1h6v1h-2.33a4.71,4.71,0,0,0,2.9,4l-.77.82a7.3,7.3,0,0,1-2.7-2.71A8.16,8.16,0,0,1,102.87,509.83Zm1.21.53h7.51v4.17H110.4v-3.12h-6.32Zm9.45-3.74h-1.94v2.76H110.4V502.5h1.19v3.07h1.94Z"/><rect class="cls-7" x="5.9" y="310.9" width="604.66" height="5.17"/><rect class="cls-7" x="5.9" y="349.46" width="604.66" height="5.17"/><rect class="cls-7" x="5.9" y="388.01" width="604.66" height="5.17"/><rect class="cls-7" x="143.31" y="489.92" width="22.87" height="5.17"/><rect class="cls-2" x="143.31" y="505.41" width="22.87" height="5.17"/><path d="M177.07,495.63l2.35-2.21c1.22-1.21,2.34-2.09,2.34-3.11a1.64,1.64,0,0,0-1.75-1.76,1.74,1.74,0,0,0-1.86,1.74H177a2.84,2.84,0,0,1,2.95-2.84c2,0,3,1.17,3,2.7s-1.14,2.48-2.41,3.7l-2,1.92h4.79v1.08h-6.24Z"/><path d="M191.55,494.48l-.77.78a7.35,7.35,0,0,1-2.85-3.08,7.28,7.28,0,0,1-3.05,3.29l-.77-.82a5.63,5.63,0,0,0,3.21-4.86v-.39H184.7v-1.07h2.62v-1.92h1.19v1.92h2.69v1.07h-2.69v.39A5.25,5.25,0,0,0,191.55,494.48Zm4.51-2.89h-2.29v6.49h-1.19V486h1.19v4.54h2.29Z"/><path d="M207.44,493.07a53.47,53.47,0,0,1-5.82.32h-1.38v-1h1.34c-.08-1.15-.14-2.42-.14-3.42h1.16c0,1,.07,2.26.16,3.41l1.73-.06c.08-1.13.15-2.38.15-3.35h1.16c0,1-.07,2.17-.16,3.28.63,0,1.22-.1,1.66-.17Zm-.68-4.84H200.4v-1.06h6.36Zm-3.22,8.66h6.29V498h-7.49v-3.3h1.2Zm7.94-6.92v1h-1.94v4.19h-1.19v-9.15h1.19V490Z"/><path d="M217.32,494.56h-4.78v-7h4.78Zm-1.19-1v-4.91h-2.4v4.91Zm6.46-7.47v12H221.4v-6.43h-1.52v5.81h-1.19v-11h1.19v4.19h1.52v-4.54Z"/><path d="M228.81,495.75l-.92-.77a11.68,11.68,0,0,0,4.69-6.51H228.4v-1.06h5.51A12.4,12.4,0,0,1,228.81,495.75Zm8.74-9.69v12h-1.19v-12Z"/><path d="M240.46,493.91l-.84-.8a11.32,11.32,0,0,0,4.35-4.82h-3.88v-1.05h5.36C244.83,490.4,242.53,492.46,240.46,493.91Zm2.31,3h6.32V498h-7.51v-3.57h1.19Zm8-7.14v1.05h-1.95v4.34h-1.19V486h1.19v3.75Z"/><path d="M177.07,512.52l2.35-2.22c1.22-1.2,2.34-2.08,2.34-3.11a1.63,1.63,0,0,0-1.75-1.75,1.74,1.74,0,0,0-1.86,1.74H177a2.83,2.83,0,0,1,2.95-2.84c2,0,3,1.17,3,2.7s-1.14,2.48-2.41,3.7l-2,1.92h4.79v1.07h-6.24Z"/><path d="M191.55,511.37l-.77.78a7.35,7.35,0,0,1-2.85-3.08,7.28,7.28,0,0,1-3.05,3.29l-.77-.82a5.63,5.63,0,0,0,3.21-4.87v-.39H184.7v-1.06h2.62V503.3h1.19v1.92h2.69v1.06h-2.69v.39A5.28,5.28,0,0,0,191.55,511.37Zm4.51-2.89h-2.29V515h-1.19V502.89h1.19v4.54h2.29Z"/><path d="M204.26,504.14h1.17v7.49h-4.77v-7.32h1.19v2.46h2.41Zm0,6.44v-2.76h-2.41v2.76ZM210.7,503v12h-1.19v-6.4H208v5.78h-1.18V503.3H208v4.2h1.5V503Z"/><path d="M223.33,508.92v1H212.12v-1h5v-1.75h1.21v1.75Zm-9.74-1L213,507c1.77-.34,4.12-1.66,4.12-3.45v-.31h1.19v.31c0,1.79,2.38,3.11,4.12,3.45l-.59.85a6.44,6.44,0,0,1-4.11-2.62A6.5,6.5,0,0,1,213.59,507.88Zm8,5.15c0,1.25-1.32,2.08-3.88,2.08s-3.85-.83-3.85-2.08,1.29-2.17,3.85-2.17S221.59,511.7,221.59,513Zm-1.18,0c0-.7-.84-1.11-2.7-1.11s-2.66.41-2.66,1.11.76,1.06,2.66,1.06S220.41,513.62,220.41,513Z"/><path d="M234.89,511.27l-.84.74a9.28,9.28,0,0,1-2.62-4,8.72,8.72,0,0,1-2.94,4.16l-.86-.77a7.76,7.76,0,0,0,3.21-6.47V504H232V505A7.94,7.94,0,0,0,234.89,511.27Zm2.73-8.38V515h-1.19V502.89Z"/><path d="M240.14,510.28l-.83-.82c1.29-.82,3-1.89,3.17-4.44H240v-1h6v1H243.7a4.68,4.68,0,0,0,2.89,4l-.77.82a7.3,7.3,0,0,1-2.7-2.71A8.2,8.2,0,0,1,240.14,510.28Zm1.2.53h7.51V515h-1.19v-3.12h-6.32Zm9.46-3.74h-2v2.76h-1.19V503h1.19V506h2Z"/><rect class="cls-8" x="19.08" y="286.68" width="23.79" height="29.39"/><path d="M32,300.2c1.63-1.6,2.23-2.68,2.23-4.13a2.84,2.84,0,0,0-3.13-2.9,2.92,2.92,0,0,0-3.14,3,3.26,3.26,0,0,0,.19,1.13l-2.49.45a4.92,4.92,0,0,1-.3-1.83c0-2.62,2.25-5.1,5.77-5.1s5.7,2.1,5.7,4.9c0,2.18-.73,3.83-3.05,6.1l-4.45,4.4h7.55v2.45H25.29v-1.92Z"/></g></g></svg>