<svg xmlns="http://www.w3.org/2000/svg" viewBox="0 0 616.46 256.69"><defs><style>.cls-1{fill:none;}.cls-2{fill:#fff;stroke:#231815;stroke-miterlimit:10;}</style></defs><g id="Layer_2" data-name="Layer 2"><g id="레이어_1" data-name="레이어 1"><rect class="cls-1" width="616.46" height="256.69"/><line class="cls-2" x1="9.32" y1="47.15" x2="603.34" y2="47.15"/><line class="cls-2" x1="9.32" y1="85.64" x2="603.34" y2="85.64"/><line class="cls-2" x1="9.32" y1="124.12" x2="603.34" y2="124.12"/><line class="cls-2" x1="9.32" y1="162.61" x2="603.34" y2="162.61"/><line class="cls-2" x1="9.32" y1="201.1" x2="603.34" y2="201.1"/><line class="cls-2" x1="9.32" y1="239.59" x2="603.34" y2="239.59"/><path d="M32.73,63.84c3.77.73,5.65,2.3,5.65,5.23s-2.45,5.27-6.4,5.27c-4.18,0-6.6-2.4-7.17-5.52l2.37-1.23C27.68,70.47,29.3,72,32,72c2.33,0,3.73-1.27,3.73-2.82,0-1.83-1.45-2.63-4.45-3.2-3.25-.63-5.63-2.2-5.63-5.15,0-2.78,2.48-4.68,6-4.68a6.44,6.44,0,0,1,6.48,4.35l-2.15,1.25a4.32,4.32,0,0,0-4.35-3.25c-1.85,0-3.43.78-3.43,2.28S29.65,63.24,32.73,63.84Z"/><path d="M25.6,95.12h2.88l5.92,14.82,5.93-14.82H43.2v17.49H40.6V100.49c-.15.45-.9,2.47-.9,2.47l-4,9.65H33.1l-4-9.65s-.75-2-.9-2.47v12.12H25.6Z"/><path d="M25.6,133.74h2.7v15.09h8.78v2.4H25.6Z"/><path d="M31,178.33l3.7-6H37.6l-5,8,5.82,9.53H35.45L31,182.61l-4.38,7.25h-3l5.87-9.4-5-8.1h3Z"/><path d="M40.25,172.36H43v15.1h8.78v2.4H40.25Z"/><path d="M31.6,220c1.63-1.6,2.23-2.67,2.23-4.12A2.84,2.84,0,0,0,30.7,213a2.93,2.93,0,0,0-3.15,3,3.3,3.3,0,0,0,.2,1.13l-2.49.45a4.93,4.93,0,0,1-.31-1.83c0-2.62,2.25-5.1,5.78-5.1s5.7,2.1,5.7,4.9c0,2.17-.73,3.82-3,6.1L28.93,226h7.55v2.45H24.88v-1.93Z"/><path d="M45.68,217l3.7-6h2.87l-5,8,5.82,9.53H50.1l-4.42-7.25-4.38,7.25h-3l5.87-9.4-5-8.1h3Z"/><path d="M54.91,211H57.6v15.1h8.78v2.4H54.91Z"/><path d="M130.36,58.69a3.73,3.73,0,0,0,3.83-2.2h2.49V74H134V59.92a4.69,4.69,0,0,1-3.63,1.17Z"/><path d="M139.61,69.14a4.85,4.85,0,0,1,2.93-4.52,4.41,4.41,0,0,1-2.4-4c0-2.68,2.37-4.53,5.52-4.53s5.52,1.85,5.52,4.53a4.41,4.41,0,0,1-2.4,4,4.85,4.85,0,0,1,2.93,4.52c0,3.13-2.48,5.2-6.05,5.2S139.61,72.27,139.61,69.14Zm9.5-.17a3.46,3.46,0,0,0-6.9,0,3.46,3.46,0,0,0,6.9,0Zm-3.45-5.33a2.78,2.78,0,0,0,3-2.75,3,3,0,0,0-5.94,0A2.78,2.78,0,0,0,145.66,63.64Z"/><path d="M147,35.8h-2.92L140.53,22,137,35.8H134l-4.83-17.5H132l3.1,12.13s.3,1.2.42,1.82c.12-.62.43-1.85.43-1.85l3.12-12.1H142l3.12,12.1s.3,1.23.43,1.85c.12-.62.42-1.82.42-1.82L149,18.3h2.83Z"/><path d="M153.54,18.55h2.89v2.88h-2.89Zm.17,4.85h2.55V35.8h-2.55Z"/><path d="M171.51,35.8H169v-2a4.55,4.55,0,0,1-4.1,2.35c-3.4,0-6-2.58-6-6.55a6.2,6.2,0,0,1,6-6.55A4.45,4.45,0,0,1,169,25.28v-7h2.55Zm-2.38-6.2a3.86,3.86,0,1,0-7.69,0,3.86,3.86,0,1,0,7.69,0Z"/><path d="M173.94,23.4h2V20.05h2.54V23.4h2.78v2.05h-2.78V32c0,1.23.5,1.83,1.7,1.83a4,4,0,0,0,.93-.15l.22,2.15a5.58,5.58,0,0,1-1.85.3c-1.87,0-3.54-.85-3.54-3.68v-7h-2Z"/><path d="M195.16,35.8h-2.55V28.2a2.55,2.55,0,0,0-2.75-2.8,3.54,3.54,0,0,0-3.4,3.85V35.8h-2.55V18.3h2.55v7.18a5.11,5.11,0,0,1,4.3-2.43,4.14,4.14,0,0,1,4.4,4.38Z"/><path d="M251.85,18.3h2.7V33.4h8.78v2.4H251.85Z"/><path d="M267.1,30.15a3.69,3.69,0,0,0,3.78,3.77c2,0,3-1.1,3.7-2.57l2,1.17a5.87,5.87,0,0,1-5.75,3.63,6.27,6.27,0,0,1-6.24-6.55,6.3,6.3,0,0,1,6.37-6.55c3.6,0,6,2.58,6,6.2v.9Zm0-1.95h7.4a3.47,3.47,0,0,0-3.62-3.1A4,4,0,0,0,267.1,28.2Z"/><path d="M290.8,35.8h-2.55V28.13a2.51,2.51,0,0,0-2.75-2.73c-1.77,0-3.25,1.5-3.25,3.85V35.8H279.7V23.4h2.55v2.08a4.94,4.94,0,0,1,4.23-2.43,4.07,4.07,0,0,1,4.32,4.33Z"/><path d="M296.65,36.65a2,2,0,0,0-.2.9c0,.92,1.2,1.6,3.1,1.6,2.33,0,3.5-1.23,3.5-3.75V33.45a4.11,4.11,0,0,1-3.77,2.15,6,6,0,0,1-6-6.27,5.92,5.92,0,0,1,5.89-6.28,4.45,4.45,0,0,1,3.85,2.05V23.4h2.55V35.05c0,4-2.3,6.2-6.05,6.2s-5.7-1.55-5.7-3.9a2.87,2.87,0,0,1,.33-1.4Zm-.8-7.32c0,2.55,1.63,4,3.68,4s3.67-1.44,3.67-4-1.62-4-3.67-4S295.85,26.78,295.85,29.33Z"/><path d="M307.83,23.4h2V20.05h2.55V23.4h2.77v2.05h-2.77V32c0,1.23.5,1.83,1.7,1.83a4,4,0,0,0,.92-.15l.23,2.15a5.68,5.68,0,0,1-1.85.3c-1.88,0-3.55-.85-3.55-3.68v-7h-2Z"/><path d="M329.05,35.8H326.5V28.2a2.55,2.55,0,0,0-2.75-2.8,3.55,3.55,0,0,0-3.4,3.85V35.8h-2.54V18.3h2.54v7.18a5.13,5.13,0,0,1,4.3-2.43,4.14,4.14,0,0,1,4.4,4.38Z"/><path d="M379.72,25.65c3.77.73,5.65,2.3,5.65,5.23s-2.45,5.27-6.4,5.27c-4.17,0-6.6-2.4-7.17-5.52l2.37-1.23c.5,2.87,2.13,4.4,4.78,4.4,2.32,0,3.72-1.28,3.72-2.83,0-1.82-1.45-2.62-4.45-3.19-3.25-.63-5.62-2.2-5.62-5.15,0-2.78,2.47-4.68,6-4.68a6.44,6.44,0,0,1,6.47,4.35l-2.15,1.25a4.32,4.32,0,0,0-4.35-3.25c-1.85,0-3.42.78-3.42,2.28S376.65,25.05,379.72,25.65Z"/><path d="M388.6,18.3h2.55V35.8H388.6Z"/><path d="M396.42,30.15a3.69,3.69,0,0,0,3.77,3.77,3.82,3.82,0,0,0,3.7-2.57l2,1.17a5.87,5.87,0,0,1-5.75,3.63,6.28,6.28,0,0,1-6.25-6.55,6.31,6.31,0,0,1,6.37-6.55c3.6,0,6,2.58,6,6.2v.9Zm0-1.95h7.4a3.48,3.48,0,0,0-3.63-3.1A3.94,3.94,0,0,0,396.42,28.2Z"/><path d="M410.92,30.15a3.69,3.69,0,0,0,3.77,3.77,3.82,3.82,0,0,0,3.7-2.57l2,1.17a5.87,5.87,0,0,1-5.75,3.63,6.28,6.28,0,0,1-6.25-6.55,6.31,6.31,0,0,1,6.37-6.55c3.6,0,6,2.58,6,6.2v.9Zm0-1.95h7.4a3.48,3.48,0,0,0-3.63-3.1A3.94,3.94,0,0,0,410.92,28.2Z"/><path d="M429,35.8h-2.45l-5-12.4h2.75l3.48,9.23,3.47-9.23H434Z"/><path d="M437.35,30.15a3.69,3.69,0,0,0,3.77,3.77c2,0,3-1.1,3.7-2.57l2,1.17A5.87,5.87,0,0,1,441,36.15a6.28,6.28,0,0,1-6.24-6.55,6.31,6.31,0,0,1,6.37-6.55c3.6,0,6,2.58,6,6.2v.9Zm0-1.95h7.39a3.47,3.47,0,0,0-3.62-3.1A3.93,3.93,0,0,0,437.35,28.2Z"/><path d="M472.69,31.55c-1.82,3-3.87,4.6-7.65,4.6-5,0-8.67-3.75-8.67-9.1a8.76,8.76,0,0,1,8.8-9.1,7.92,7.92,0,0,1,7.47,4.53L470.49,24c-1.25-2.43-3-3.63-5.37-3.63-3.3,0-6,2.8-6,6.65s2.52,6.65,6,6.65c2.35,0,4.2-1.13,5.53-3.62Z"/><path d="M476.94,30.15a3.7,3.7,0,0,0,3.78,3.77c2,0,3-1.1,3.7-2.57l2,1.17a5.87,5.87,0,0,1-5.75,3.63,6.28,6.28,0,0,1-6.24-6.55,6.31,6.31,0,0,1,6.37-6.55c3.6,0,6,2.58,6,6.2v.9Zm0-1.95h7.4a3.47,3.47,0,0,0-3.62-3.1A4,4,0,0,0,476.94,28.2Z"/><path d="M500.64,35.8h-2.55V28.13a2.51,2.51,0,0,0-2.75-2.73c-1.77,0-3.24,1.5-3.24,3.85V35.8h-2.55V23.4h2.55v2.08a4.92,4.92,0,0,1,4.22-2.43,4.07,4.07,0,0,1,4.32,4.33Z"/><path d="M502.37,23.4h2V20.05h2.55V23.4h2.77v2.05h-2.77V32c0,1.23.5,1.83,1.7,1.83a4,4,0,0,0,.92-.15l.23,2.15a5.68,5.68,0,0,1-1.85.3c-1.87,0-3.55-.85-3.55-3.68v-7h-2Z"/><path d="M513.72,30.15a3.69,3.69,0,0,0,3.77,3.77,3.82,3.82,0,0,0,3.7-2.57l2,1.17a5.87,5.87,0,0,1-5.75,3.63,6.28,6.28,0,0,1-6.25-6.55,6.31,6.31,0,0,1,6.37-6.55c3.6,0,6,2.58,6,6.2v.9Zm0-1.95h7.4a3.48,3.48,0,0,0-3.63-3.1A3.93,3.93,0,0,0,513.72,28.2Z"/><path d="M532.94,25.6a3.12,3.12,0,0,0-1-.15c-1.8,0-3.1,1.63-3.1,3.83V35.8h-2.55V23.4h2.55v2.1a3.85,3.85,0,0,1,3.57-2.45,3.72,3.72,0,0,1,.93.13Z"/><path d="M542.67,18.3h6.8c3.47,0,5.55,1.68,5.55,4.25a4.09,4.09,0,0,1-2.7,3.78c1.92.72,3.42,2,3.42,4.27,0,3.25-2.85,5.2-6.17,5.2h-6.9Zm2.7,7.05h3.9c2,0,3.15-.7,3.15-2.35s-1.2-2.35-3.15-2.35h-3.9Zm0,8.1h3.92c2.3,0,3.7-.93,3.7-2.87s-1.4-2.88-3.7-2.88h-3.92Z"/><path d="M566.69,35.8a3.54,3.54,0,0,1-.7-2.18,4.38,4.38,0,0,1-4.12,2.53c-2.5,0-4.22-1.58-4.22-3.83,0-2.49,2-3.69,4.37-4.07l3.92-.62V27.1c0-1.42-.9-2.15-2.6-2.15s-2.57.75-2.57,1.63a1.17,1.17,0,0,0,.05.37l-2.27.78a2.48,2.48,0,0,1-.2-1c0-1.93,1.87-3.68,5-3.68,3.38,0,5.15,1.5,5.15,4.2V32.7a5.31,5.31,0,0,0,.75,3.1Zm-.75-5.95V29.5l-3.35.58c-1.55.27-2.4,1-2.4,2.1A1.85,1.85,0,0,0,562.27,34C564.49,34,565.94,32.22,565.94,29.85Z"/><path d="M583.27,32.57a6.08,6.08,0,0,1-5.7,3.58,6.31,6.31,0,0,1-6.43-6.55,6.38,6.38,0,0,1,6.43-6.55,5.69,5.69,0,0,1,5.6,3.38l-2,1.35a3.71,3.71,0,0,0-3.55-2.38,3.87,3.87,0,0,0-3.85,4.2c0,2.62,1.65,4.2,3.85,4.2,1.88,0,2.88-.95,3.7-2.5Z"/><path d="M588.24,27.58l4.23-4.18h3.12l-4.37,4.3,5.12,8.1h-3l-4-6.3-1.15,1.15V35.8h-2.55V18.3h2.55Z"/><path d="M137.11,104.14c1.62-1.6,2.22-2.68,2.22-4.12a2.83,2.83,0,0,0-3.12-2.9,2.92,2.92,0,0,0-3.15,3,3.25,3.25,0,0,0,.2,1.13l-2.5.45a5.13,5.13,0,0,1-.3-1.83c0-2.62,2.25-5.09,5.78-5.09s5.69,2.1,5.69,4.89c0,2.18-.72,3.83-3.05,6.1l-4.44,4.4H142v2.45H130.39v-1.92Z"/><path d="M152,113c-4.52,0-7.75-3.62-7.75-9.1s3.23-9.09,7.75-9.09,7.75,3.62,7.75,9.09S156.48,113,152,113Zm5-9.1c0-4.17-2.1-6.64-5-6.64s-5.05,2.47-5.05,6.64,2.1,6.65,5.05,6.65S157,108,157,103.86Z"/><path d="M137.11,142.76c1.62-1.6,2.22-2.67,2.22-4.12a2.83,2.83,0,0,0-3.12-2.9,2.93,2.93,0,0,0-3.15,3,3.2,3.2,0,0,0,.2,1.12l-2.5.45a5.08,5.08,0,0,1-.3-1.82c0-2.63,2.25-5.1,5.78-5.1s5.69,2.1,5.69,4.9c0,2.17-.72,3.82-3.05,6.1l-4.44,4.39H142v2.45H130.39v-1.92Z"/><path d="M151.76,142.76c1.62-1.6,2.22-2.67,2.22-4.12a2.83,2.83,0,0,0-3.12-2.9,2.93,2.93,0,0,0-3.15,3,3.2,3.2,0,0,0,.2,1.12l-2.5.45a5.08,5.08,0,0,1-.3-1.82c0-2.63,2.25-5.1,5.78-5.1s5.69,2.1,5.69,4.9c0,2.17-.72,3.82-3.05,6.1l-4.44,4.39h7.54v2.45H145v-1.92Z"/><path d="M137.11,181.38c1.62-1.6,2.22-2.67,2.22-4.12a2.83,2.83,0,0,0-3.12-2.9,2.93,2.93,0,0,0-3.15,3,3.2,3.2,0,0,0,.2,1.12l-2.5.45a5.08,5.08,0,0,1-.3-1.82c0-2.63,2.25-5.1,5.78-5.1s5.69,2.1,5.69,4.9c0,2.17-.72,3.82-3.05,6.1l-4.44,4.4H142v2.45H130.39v-1.93Z"/><path d="M143.66,184.21l8.57-11.85h2.7v11.85h1.88v2.45h-1.88v3.2h-2.7v-3.2h-8.57Zm2.83,0h5.74v-8Z"/><path d="M137.11,220c1.62-1.6,2.22-2.67,2.22-4.12a2.83,2.83,0,0,0-3.12-2.9,2.93,2.93,0,0,0-3.15,3,3.3,3.3,0,0,0,.2,1.13l-2.5.45a5.13,5.13,0,0,1-.3-1.83c0-2.62,2.25-5.1,5.78-5.1s5.69,2.1,5.69,4.9c0,2.17-.72,3.82-3.05,6.1l-4.44,4.4H142v2.45H130.39v-1.93Z"/><path d="M154,215.73a2.43,2.43,0,0,0,.17-.9c0-1.22-1.1-2-2.7-2-2.54,0-4.12,2.82-4.34,6.42a5.77,5.77,0,0,1,10.32,3.6,6,6,0,0,1-6.35,6c-4,0-6.6-3-6.6-8.08a14.81,14.81,0,0,1,1-5.74,6.36,6.36,0,0,1,5.94-4.38c3.25,0,5.25,1.73,5.25,4.27a3.79,3.79,0,0,1-.22,1.33Zm-6.57,7.2a3.69,3.69,0,1,0,3.67-3.6A3.54,3.54,0,0,0,147.39,222.93Z"/><path d="M257.85,65.52c1.63-1.6,2.23-2.68,2.23-4.13a2.84,2.84,0,0,0-3.13-2.9,2.93,2.93,0,0,0-3.15,3,3.25,3.25,0,0,0,.2,1.13l-2.5.45a5.13,5.13,0,0,1-.3-1.83c0-2.62,2.25-5.1,5.78-5.1s5.7,2.1,5.7,4.9c0,2.18-.73,3.83-3.05,6.1l-4.45,4.4h7.55V74h-11.6V72.07Z"/><path d="M265.13,69.14a4.84,4.84,0,0,1,2.92-4.52,4.43,4.43,0,0,1-2.4-4c0-2.68,2.38-4.53,5.53-4.53s5.52,1.85,5.52,4.53a4.41,4.41,0,0,1-2.4,4,4.85,4.85,0,0,1,2.93,4.52c0,3.13-2.48,5.2-6.05,5.2S265.13,72.27,265.13,69.14Zm9.5-.17a3.46,3.46,0,0,0-6.9,0,3.46,3.46,0,0,0,6.9,0Zm-3.45-5.33a2.78,2.78,0,0,0,3-2.75,3,3,0,0,0-5.95,0A2.79,2.79,0,0,0,271.18,63.64Z"/><path d="M257.85,104.14c1.63-1.6,2.23-2.68,2.23-4.12a2.83,2.83,0,0,0-3.13-2.9,2.92,2.92,0,0,0-3.15,3,3.25,3.25,0,0,0,.2,1.13l-2.5.45a5.13,5.13,0,0,1-.3-1.83c0-2.62,2.25-5.09,5.78-5.09s5.7,2.1,5.7,4.89c0,2.18-.73,3.83-3.05,6.1l-4.45,4.4h7.55v2.45h-11.6v-1.92Z"/><path d="M268.43,107.91a2.26,2.26,0,0,0-.18.9c0,1.23,1.13,2,2.85,2,2.58,0,4.15-2.35,4.2-6.4a5,5,0,0,1-4.25,2.2,5.68,5.68,0,0,1-6-5.82,6,6,0,0,1,6.27-6c4.13,0,6.55,2.87,6.55,7.92a16.76,16.76,0,0,1-1,6.15A6,6,0,0,1,271,113c-3.25,0-5.35-1.8-5.35-4.22a3.83,3.83,0,0,1,.23-1.33Zm6.6-7.25a3.54,3.54,0,0,0-3.68-3.59,3.6,3.6,0,1,0,0,7.19A3.54,3.54,0,0,0,275,100.66Z"/><path d="M254,145.51a3.27,3.27,0,0,0-.1.8c0,1.67,1.48,2.92,3.43,2.92,2.1,0,3.45-1.12,3.45-3.17,0-2.3-2-3.17-4.7-3.17v-2c2.8,0,3.95-1.28,3.95-2.85s-1.18-2.35-2.88-2.35a2.59,2.59,0,0,0-2.85,2.47,1.91,1.91,0,0,0,.13.73l-2.45.47a3.66,3.66,0,0,1-.23-1.27c0-2.53,2.13-4.65,5.43-4.65,3.55,0,5.45,1.85,5.45,4.27a4.22,4.22,0,0,1-2.7,4,4.51,4.51,0,0,1,3.55,4.4c0,3.45-2.65,5.57-6.15,5.57-3.93,0-6.13-2.55-6.13-5.19a4.06,4.06,0,0,1,.28-1.48Z"/><path d="M273.75,151.58c-4.52,0-7.75-3.62-7.75-9.09s3.23-9.1,7.75-9.1,7.75,3.62,7.75,9.1S278.28,151.58,273.75,151.58Zm5.05-9.09c0-4.18-2.1-6.65-5.05-6.65s-5.05,2.47-5.05,6.65,2.1,6.64,5.05,6.64S278.8,146.66,278.8,142.49Z"/><path d="M254,184.13a3.33,3.33,0,0,0-.1.8c0,1.68,1.48,2.93,3.43,2.93,2.1,0,3.45-1.13,3.45-3.18,0-2.3-2-3.17-4.7-3.17v-2c2.8,0,3.95-1.28,3.95-2.85s-1.18-2.35-2.88-2.35a2.59,2.59,0,0,0-2.85,2.47,1.91,1.91,0,0,0,.13.73l-2.45.47a3.66,3.66,0,0,1-.23-1.27c0-2.53,2.13-4.65,5.43-4.65,3.55,0,5.45,1.85,5.45,4.27a4.22,4.22,0,0,1-2.7,3.95,4.51,4.51,0,0,1,3.55,4.4c0,3.45-2.65,5.57-6.15,5.57-3.93,0-6.13-2.54-6.13-5.19a4.1,4.1,0,0,1,.28-1.48Z"/><path d="M265.43,174.56a3.73,3.73,0,0,0,3.82-2.2h2.5v17.5h-2.7V175.78a4.65,4.65,0,0,1-3.62,1.18Z"/><path d="M254,222.75a3.33,3.33,0,0,0-.1.8c0,1.68,1.48,2.93,3.43,2.93,2.1,0,3.45-1.13,3.45-3.18,0-2.3-2-3.17-4.7-3.17v-2c2.8,0,3.95-1.27,3.95-2.85s-1.18-2.35-2.88-2.35a2.6,2.6,0,0,0-2.85,2.48,1.89,1.89,0,0,0,.13.72l-2.45.48a3.76,3.76,0,0,1-.23-1.28c0-2.52,2.13-4.65,5.43-4.65,3.55,0,5.45,1.85,5.45,4.27a4.21,4.21,0,0,1-2.7,3.95,4.51,4.51,0,0,1,3.55,4.4c0,3.45-2.65,5.58-6.15,5.58-3.93,0-6.13-2.55-6.13-5.2a4.1,4.1,0,0,1,.28-1.48Z"/><path d="M272.38,220c1.62-1.6,2.22-2.67,2.22-4.12a2.83,2.83,0,0,0-3.12-2.9,2.93,2.93,0,0,0-3.15,3,3.08,3.08,0,0,0,.2,1.13l-2.5.45a4.92,4.92,0,0,1-.3-1.83c0-2.62,2.25-5.1,5.77-5.1s5.7,2.1,5.7,4.9c0,2.17-.72,3.82-3.05,6.1L269.7,226h7.55v2.45h-11.6v-1.93Z"/><path d="M371.85,58.69a3.73,3.73,0,0,0,3.82-2.2h2.5V74h-2.7V59.92a4.65,4.65,0,0,1-3.62,1.17Z"/><path d="M382.4,56.49h10.44v2.45h-8.42L384,63.87A5.43,5.43,0,0,1,388,62c3.82,0,6,2.45,6,6a6.12,6.12,0,0,1-6.47,6.27c-3.75,0-6-2.25-6-4.85a4.28,4.28,0,0,1,.22-1.32l2.48.57a3.09,3.09,0,0,0-.1.78c0,1.67,1.5,2.47,3.4,2.47a3.6,3.6,0,0,0,3.77-3.92,3.52,3.52,0,0,0-3.7-3.88,4.74,4.74,0,0,0-3.9,2.35l-2.1-.57Z"/><path d="M396,71.09h2.85V74H396Z"/><path d="M410.39,61.24a2.19,2.19,0,0,0,.18-.9c0-1.22-1.1-2-2.7-2-2.55,0-4.12,2.83-4.35,6.43a5.77,5.77,0,0,1,10.32,3.6,6,6,0,0,1-6.34,6c-4,0-6.6-3-6.6-8.07a15.07,15.07,0,0,1,1-5.75c1.13-2.78,3.3-4.38,5.95-4.38,3.25,0,5.25,1.73,5.25,4.28a3.73,3.73,0,0,1-.23,1.32Zm-6.57,7.2a3.69,3.69,0,1,0,3.68-3.6A3.54,3.54,0,0,0,403.82,68.44Z"/><path d="M419.17,68.27a3.27,3.27,0,0,0-.1.8c0,1.67,1.48,2.92,3.43,2.92,2.1,0,3.44-1.12,3.44-3.17,0-2.3-2-3.18-4.69-3.18v-2c2.8,0,3.94-1.27,3.94-2.85s-1.17-2.35-2.87-2.35a2.6,2.6,0,0,0-2.85,2.48,1.85,1.85,0,0,0,.13.72l-2.45.48a3.76,3.76,0,0,1-.23-1.28c0-2.52,2.13-4.65,5.43-4.65,3.54,0,5.44,1.85,5.44,4.28a4.23,4.23,0,0,1-2.69,4,4.48,4.48,0,0,1,3.54,4.4c0,3.45-2.65,5.57-6.14,5.57-3.93,0-6.13-2.55-6.13-5.2a4,4,0,0,1,.28-1.47Z"/><path d="M371.85,97.32a3.73,3.73,0,0,0,3.82-2.2h2.5v17.49h-2.7V98.54a4.65,4.65,0,0,1-3.62,1.18Z"/><path d="M385.85,112.61H383.2l6.72-15H381.1V95.12h11.54v2.3Z"/><path d="M371.85,135.94a3.73,3.73,0,0,0,3.82-2.2h2.5v17.49h-2.7V137.16a4.65,4.65,0,0,1-3.62,1.18Z"/><path d="M381.1,146.39a4.86,4.86,0,0,1,2.92-4.53,4.42,4.42,0,0,1-2.4-4c0-2.67,2.38-4.52,5.53-4.52s5.52,1.85,5.52,4.52a4.42,4.42,0,0,1-2.4,4,4.86,4.86,0,0,1,2.92,4.53c0,3.12-2.47,5.19-6,5.19S381.1,149.51,381.1,146.39Zm9.5-.18a3.46,3.46,0,1,0-3.45,3.17A3.26,3.26,0,0,0,390.6,146.21Zm-3.45-5.32a2.78,2.78,0,0,0,3-2.75,3,3,0,0,0-5.95,0A2.79,2.79,0,0,0,387.15,140.89Z"/><path d="M395.57,148.33h2.85v2.9h-2.85Z"/><path d="M401.52,133.74H412v2.45h-8.42l-.48,4.92a5.43,5.43,0,0,1,4.07-1.82c3.83,0,5.95,2.45,5.95,6a6.11,6.11,0,0,1-6.47,6.27c-3.75,0-6-2.25-6-4.85a4,4,0,0,1,.23-1.32l2.47.57a3.09,3.09,0,0,0-.1.78c0,1.67,1.5,2.47,3.4,2.47a3.59,3.59,0,0,0,3.77-3.92,3.51,3.51,0,0,0-3.69-3.87,4.7,4.7,0,0,0-3.9,2.35l-2.1-.58Z"/><path d="M378.6,181.38c1.62-1.6,2.22-2.67,2.22-4.12a2.83,2.83,0,0,0-3.12-2.9,2.92,2.92,0,0,0-3.15,3,3,3,0,0,0,.2,1.12l-2.5.45a4.87,4.87,0,0,1-.3-1.82c0-2.63,2.25-5.1,5.77-5.1s5.7,2.1,5.7,4.9c0,2.17-.73,3.82-3.05,6.1l-4.45,4.4h7.55v2.45h-11.6v-1.93Z"/><path d="M393.44,190.2c-4.52,0-7.74-3.62-7.74-9.09s3.22-9.1,7.74-9.1,7.75,3.62,7.75,9.1S398,190.2,393.44,190.2Zm5.05-9.09c0-4.18-2.1-6.65-5.05-6.65s-5,2.47-5,6.65,2.1,6.65,5,6.65S398.49,185.28,398.49,181.11Z"/><path d="M378.6,220c1.62-1.6,2.22-2.67,2.22-4.12a2.83,2.83,0,0,0-3.12-2.9,2.93,2.93,0,0,0-3.15,3,3.08,3.08,0,0,0,.2,1.13l-2.5.45a4.92,4.92,0,0,1-.3-1.83c0-2.62,2.25-5.1,5.77-5.1s5.7,2.1,5.7,4.9c0,2.17-.73,3.82-3.05,6.1l-4.45,4.4h7.55v2.45h-11.6v-1.93Z"/><path d="M386.5,213.18a3.73,3.73,0,0,0,3.82-2.2h2.5v17.5h-2.7V214.4a4.62,4.62,0,0,1-3.62,1.18Z"/><path d="M395.85,225.58h2.85v2.9h-2.85Z"/><path d="M401.8,211h10.44v2.45h-8.42l-.47,4.93a5.39,5.39,0,0,1,4.07-1.83c3.82,0,5.95,2.45,5.95,6a6.12,6.12,0,0,1-6.48,6.28c-3.74,0-6-2.25-6-4.85a4.4,4.4,0,0,1,.22-1.33l2.48.58a3.07,3.07,0,0,0-.1.77c0,1.68,1.5,2.48,3.39,2.48a3.6,3.6,0,0,0,3.78-3.93,3.51,3.51,0,0,0-3.7-3.87,4.72,4.72,0,0,0-3.9,2.35l-2.1-.58Z"/><path d="M534.09,231.94a22.58,22.58,0,0,1,0-21.19h2.38a24.77,24.77,0,0,0,0,21.19Z"/><path d="M540.12,211H543v2.87h-2.9Zm.18,4.85h2.54v12.39H540.3Z"/><path d="M557.42,228.24h-2.55v-7.67a2.51,2.51,0,0,0-2.75-2.73c-1.78,0-3.25,1.5-3.25,3.85v6.55h-2.55V215.85h2.55v2.07a4.91,4.91,0,0,1,4.22-2.42,4.06,4.06,0,0,1,4.33,4.32Z"/><path d="M572.14,225a6.06,6.06,0,0,1-5.7,3.57A6.29,6.29,0,0,1,560,222a6.37,6.37,0,0,1,6.42-6.54,5.66,5.66,0,0,1,5.6,3.37l-2,1.35a3.72,3.72,0,0,0-3.55-2.38,3.87,3.87,0,0,0-3.85,4.2c0,2.63,1.65,4.2,3.85,4.2,1.87,0,2.87-1,3.7-2.5Z"/><path d="M585.82,228.24h-2.55v-7.6a2.55,2.55,0,0,0-2.75-2.8,3.54,3.54,0,0,0-3.4,3.85v6.55h-2.55V210.75h2.55v7.17a5.1,5.1,0,0,1,4.3-2.42,4.14,4.14,0,0,1,4.4,4.37Z"/><path d="M589.67,231.94a24.87,24.87,0,0,0,0-21.19H592a22.51,22.51,0,0,1,0,21.19Z"/></g></g></svg>